<svg width="1200" height="1200" viewBox="0 0 1200 1200" fill="none" xmlns="http://www.w3.org/2000/svg">
  <rect width="1200" height="1200" rx="72" fill="#FAF7F1"/>
  <rect x="98" y="98" width="1004" height="1004" rx="48" fill="#FFFDF8" stroke="#E5DED1" stroke-width="6"/>
  <circle cx="266" cy="266" r="118" fill="#FF8A5B"/>
  <circle cx="930" cy="302" r="151" fill="#1F6FEB"/>
  <circle cx="825" cy="888" r="182" fill="#1D3C6E"/>
  <path d="M201 816C268 646 433 547 608 547C786 547 939 640 998 796C863 877 722 918 571 918C440 918 316 886 201 816Z" fill="#FDBE5A"/>
  <rect x="184" y="140" width="370" height="24" rx="12" fill="#2A3242"/>
  <rect x="184" y="184" width="244" height="18" rx="9" fill="#75839B"/>
  <rect x="184" y="953" width="427" height="20" rx="10" fill="#2A3242"/>
  <rect x="184" y="992" width="312" height="16" rx="8" fill="#75839B"/>
</svg>
